<?xml version="1.0" encoding="UTF-8"?>
<svg id="Capa_2" data-name="Capa 2" xmlns="http://www.w3.org/2000/svg" viewBox="0 0 457.07 647.53">
  <defs>
    <style>
      .cls-1 {
        fill: #fff;
      }
    </style>
  </defs>
  <g id="Capa_1-2" data-name="Capa 1">
    <path class="cls-1" d="m455.82,264.92c-2.16-3.6-5.75-5.75-9.35-5.75h-204.97S293.28,13.22,293.28,13.22c.72-5.04-1.44-10.07-6.47-12.23-5.04-2.16-10.07-.72-12.94,3.6L2.02,392.94c-2.16,3.6-2.87,7.91-.72,11.51,2.16,3.6,5.75,5.75,9.35,5.75h204.25l-51.06,224.38c-1.44,5.04,1.44,10.07,5.75,12.23,1.43.72,2.87.72,4.31.72,3.6,0,6.47-1.44,8.63-4.31l271.85-366.78c2.87-3.6,3.6-7.91,1.44-11.51h0Z"/>
  </g>
</svg>