<?xml version="1.0" encoding="utf-8"?>
<!-- Generator: Adobe Illustrator 27.3.1, SVG Export Plug-In . SVG Version: 6.00 Build 0)  -->
<svg version="1.1" id="Capa_2" xmlns="http://www.w3.org/2000/svg" xmlns:xlink="http://www.w3.org/1999/xlink" x="0px" y="0px"
	 viewBox="0 0 1024 1024" style="enable-background:new 0 0 1024 1024;" xml:space="preserve">
<style type="text/css">
	.st0{fill:#FF4C00;}
	.st1{fill:none;stroke:#1D1D1B;stroke-width:5;stroke-linecap:round;stroke-miterlimit:10;}
	.st2{fill:none;stroke:#9FF8DC;stroke-width:5;stroke-linecap:round;stroke-miterlimit:10;}
	.st3{fill:#2DCDC9;}
	.st4{fill:none;stroke:#5C76B5;stroke-width:8;stroke-linecap:round;stroke-miterlimit:10;}
	.st5{fill:none;stroke:#FF4C00;stroke-width:5;stroke-linecap:round;stroke-miterlimit:10;}
	.st6{fill:none;stroke:#2DCDC9;stroke-width:5;stroke-linecap:round;stroke-miterlimit:10;}
	.st7{fill:none;stroke:#64B9EF;stroke-width:5;stroke-linecap:round;stroke-miterlimit:10;}
	.st8{fill:none;stroke:#5C76B5;stroke-width:11;stroke-linecap:round;stroke-miterlimit:10;}
	.st9{fill:none;stroke:#5C76B5;stroke-width:5;stroke-linecap:round;stroke-miterlimit:10;}
	.st10{fill:none;stroke:#FBE148;stroke-width:5;stroke-linecap:round;stroke-miterlimit:10;}
	.st11{fill:none;stroke:#9FF8DC;stroke-width:8;stroke-linecap:round;stroke-miterlimit:10;}
	.st12{fill:#9FF8DC;}
	.st13{fill:none;stroke:#C71556;stroke-width:5;stroke-linecap:round;stroke-miterlimit:10;}
	.st14{fill:#5C76B5;}
	.st15{fill:none;stroke:#FBE148;stroke-width:22;stroke-linecap:round;stroke-miterlimit:10;}
	.st16{fill:#1D1D1B;}
	.st17{fill:#64B9EF;}
	.st18{fill:#FBE148;}
	.st19{fill:#C71556;}
	.st20{fill:none;stroke:#5C76B5;stroke-width:2;stroke-miterlimit:10;}
	.st21{fill:none;stroke:#FBE148;stroke-width:2;stroke-miterlimit:10;}
	.st22{fill:#FFFFFF;}
	.st23{fill:none;stroke:#FFFFFF;stroke-width:2;stroke-miterlimit:10;}
</style>
<g>
	<g>
		<path class="st0" d="M220.8,670.8l-7.9-32c-0.4-1.5,0.6-3.1,2.1-3.5l1.5-0.4c1.5-0.4,3.1,0.6,3.5,2.1l7.9,32
			c0.4,1.5-0.6,3.1-2.1,3.5l-1.5,0.4C222.8,673.3,221.2,672.4,220.8,670.8z"/>
		<path class="st22" d="M247.4,530c-0.1,0-0.2,0-0.3,0c-0.5-0.2-0.8-0.7-0.6-1.2c2.7-8.8,4.9-22,5.2-30.7c0.6-15.9-0.9-26-0.9-26.1
			c-0.1-0.5,0.3-1,0.8-1.1c0.5-0.1,1,0.3,1.1,0.8c0,0.1,1.5,10.4,0.9,26.5c-0.3,8.8-2.6,22.3-5.3,31.2
			C248.2,529.7,247.9,530,247.4,530z"/>
		<path class="st12" d="M250.5,532.9c-0.2,0-0.3,0-0.5-0.1c-0.1-0.1-10.2-6-22.2-14c-16.1-10.7-27.6-19.7-34.2-26.7
			c-0.4-0.4-0.3-1,0-1.3c0.4-0.4,1-0.3,1.3,0c6.4,6.8,18.2,15.9,33.9,26.4c11.9,7.9,22,13.9,22.1,14c0.5,0.3,0.6,0.8,0.3,1.3
			C251.1,532.7,250.8,532.9,250.5,532.9z"/>
		<path class="st3" d="M254.6,424.4l-4.6,1.8c-1.4,0.6-3-0.1-3.6-1.5l-4.1-10.2c-0.6-1.4,0.1-3,1.5-3.6l4.6-1.8
			c1.4-0.6,3,0.1,3.6,1.5l4.1,10.2C256.7,422.2,256,423.8,254.6,424.4z"/>
		<path class="st0" d="M324.9,506.5l-12.6,3.6c-1.4,0.4-2.9-0.4-3.3-1.8l-3.1-10.7c-0.4-1.4,0.4-2.9,1.8-3.3l12.6-3.6
			c1.4-0.4,2.9,0.4,3.3,1.8l3.1,10.7C327.2,504.6,326.3,506.1,324.9,506.5z"/>
		<path class="st14" d="M307.3,464.2c-0.5,0-1.1-0.3-1.3-0.8c-0.1-0.2-8.5-15.9-23.3-34.3c-13.6-16.9-35.4-39.5-62.3-51.3
			c-0.8-0.3-1.1-1.2-0.8-2c0.3-0.8,1.2-1.1,2-0.8c27.5,12.1,49.7,35.1,63.5,52.3c14.9,18.6,23.4,34.6,23.5,34.7
			c0.4,0.7,0.1,1.7-0.6,2.1C307.8,464.1,307.5,464.2,307.3,464.2z"/>
		<path class="st22" d="M348.9,676.9c-0.1,0-0.2,0-0.4-0.1c-0.5-0.2-0.7-0.8-0.5-1.2c0-0.1,4.6-11.2,3.8-27.5
			c-0.5-9.5-2.7-19-6.5-28.1c-4.8-11.4-12.3-22.2-22.1-32.2l-0.4-0.4l0.2-0.6c0.1-0.2,5.5-15.9,5-33.9c0-0.5,0.4-1,0.9-1
			c0.5,0,1,0.4,1,0.9c0.4,16.4-4,31-4.9,34c9.8,10.1,17.3,21,22.1,32.4c3.9,9.3,6.2,19,6.7,28.8c0.8,16.7-3.7,27.7-3.9,28.2
			C349.6,676.6,349.3,676.9,348.9,676.9z"/>
		<path class="st12" d="M343.4,623.1c-0.4,0-0.8-0.3-0.9-0.7c-6-19.2-22-33.6-22.1-33.7l-0.5-0.4l0.2-0.6
			c6.8-19.5,4.3-32.7,4.3-32.8c-0.1-0.5,0.2-1,0.7-1.1c0.5-0.1,1,0.2,1.1,0.7c0.1,0.5,2.6,13.6-4.1,33.3
			c2.7,2.6,16.6,16.3,22.2,34.1c0.2,0.5-0.1,1-0.6,1.2C343.6,623.1,343.5,623.1,343.4,623.1z"/>
		<path class="st0" d="M302.8,463.1c-0.4,0-0.7-0.2-0.9-0.5c-11.2-23-30.3-43.1-44.3-55.8c-15.2-13.9-27.9-22.4-28-22.5
			c-0.4-0.3-0.6-0.9-0.3-1.3c0.3-0.4,0.9-0.6,1.3-0.3c0.1,0.1,12.9,8.7,28.2,22.6c14.1,12.9,33.4,33.2,44.7,56.4
			c0.2,0.5,0,1-0.4,1.3C303.1,463,303,463.1,302.8,463.1z"/>
		<path class="st3" d="M252.7,537.5c-0.1,0-0.2,0-0.3-0.1c-0.5-0.2-0.8-0.7-0.6-1.2c0.1-0.2,7.4-21.6,7.1-51.8
			c-0.2-17.7-2.9-34.9-8.2-51.2c-6.5-20.3-17-39.1-31.1-56c-0.3-0.4-0.3-1,0.1-1.3c0.4-0.3,1-0.3,1.3,0.1
			c14.3,17.1,24.8,36.1,31.4,56.7c5.3,16.4,8.1,33.8,8.2,51.8c0.3,30.5-7.1,52.1-7.2,52.4C253.5,537.3,253.1,537.5,252.7,537.5z"/>
		<path class="st22" d="M249.9,535c-0.1,0-0.2,0-0.3,0c-0.5-0.2-0.8-0.7-0.6-1.2c3.6-12,6.3-27.7,6.7-40c0.8-22-3-38.7-3-38.9
			c-0.1-0.5,0.2-1,0.7-1.1c0.5-0.1,1,0.2,1.1,0.7c0,0.2,3.8,17.1,3.1,39.4c-0.4,12.5-3.1,28.4-6.8,40.5
			C250.7,534.7,250.3,535,249.9,535z"/>
		<path class="st17" d="M190.7,527.1c-0.2,0-0.5-0.1-0.7-0.3c-29.4-30.1-55-58.9-73.9-83.2c-16.1-20.7-24.3-34.2-26.7-40.1
			c-0.2-0.5,0-1,0.5-1.2c0.5-0.2,1,0,1.2,0.5c2.3,5.7,10.5,19.1,26.4,39.6c18.8,24.2,44.3,53,73.7,83c0.4,0.4,0.4,1,0,1.3
			C191.2,527,190.9,527.1,190.7,527.1z"/>
		<path class="st22" d="M349.7,674.6c-0.3,0-0.6-0.2-0.8-0.5c-6-10.3-13.6-17.9-22.6-22.3c-7.2-3.6-15.3-5.2-24.1-4.9
			c-14.8,0.5-26.6,6.5-27.1,6.8c-10.9,6.3-27.9,14.7-46.8,18.4c-11,2.2-17.5,1.8-18.2,1.7c-19.7,0.3-39.1-1.8-57.6-6.2
			c-14.9-3.6-29.2-8.7-42.7-15.2c-22.9-11.1-35.5-22.6-35.6-22.7c-0.4-0.4-0.4-1-0.1-1.3c0.4-0.4,1-0.4,1.3-0.1
			c0.1,0.1,12.5,11.4,35.3,22.4c13.3,6.5,27.6,11.5,42.3,15.1c18.4,4.4,37.6,6.5,57.2,6.2l0,0l0,0c0.3,0,26.6,1.8,64-19.8l0,0
			c0.5-0.3,12.4-6.4,27.9-7c9.1-0.3,17.5,1.4,25,5.1c9.3,4.6,17.2,12.4,23.4,23.1c0.3,0.5,0.1,1-0.3,1.3
			C350,674.5,349.9,674.6,349.7,674.6z"/>
		<path class="st14" d="M168.3,557.8c-0.5,0-1.1-0.2-1.5-0.6c-0.2-0.2-20.4-21.1-42.4-44.9c-29.6-31.9-48.3-53.5-55.4-64.1
			c-0.6-1-0.4-2.3,0.6-2.9c1-0.6,2.3-0.4,2.9,0.6c16.7,24.9,96.6,107.6,97.4,108.4c0.8,0.8,0.8,2.2,0,3
			C169.3,557.7,168.8,557.8,168.3,557.8z"/>
		<path class="st17" d="M73.3,628.1c-0.2,0-0.4-0.1-0.6-0.2l-9.1-7.5c-0.4-0.3-0.5-0.9-0.1-1.3c0.3-0.4,0.9-0.5,1.3-0.1l9.1,7.5
			c0.4,0.3,0.5,0.9,0.1,1.3C73.9,628,73.6,628.1,73.3,628.1z"/>
		<path class="st14" d="M62.5,619.2c-0.2,0-0.5-0.1-0.6-0.2c-0.9-0.8-21.6-19.5-26.9-26.6c-0.3-0.4-0.3-1,0.1-1.4
			c0.3-0.4,0.9-0.5,1.3-0.2c2.5,1.4,11.7,6.2,23.8,11.2c15.8,6.5,29.9,10.4,41.9,11.7c0.5,0.1,0.9,0.5,0.8,1c-0.1,0.5-0.5,0.9-1,0.8
			c-12.1-1.3-26.4-5.3-42.4-11.8c-8.8-3.6-16-7.1-20.3-9.3c7.6,8.4,23.8,23,24,23.2c0.4,0.4,0.4,1,0.1,1.3
			C63,619.1,62.7,619.2,62.5,619.2z"/>
		<path class="st12" d="M143.7,617.6c-18.3,0-32.5-2.6-32.7-2.6c-0.5-0.1-0.9-0.6-0.8-1.1c0.1-0.5,0.6-0.9,1.1-0.8
			c0.2,0,17.9,3.2,39.2,2.4c12.5-0.5,23.7-2.2,33.5-5.1c12.1-3.7,21.8-9.2,28.9-16.5c0.4-0.4,1-0.4,1.3,0c0.4,0.4,0.4,1,0,1.3
			c-7.3,7.5-17.3,13.3-29.7,17c-9.9,3-21.3,4.7-34,5.2C148.2,617.6,145.9,617.6,143.7,617.6z"/>
		<path class="st0" d="M174.5,473.4c-0.2,0-0.4-0.1-0.6-0.2l-65-57c-0.4-0.3-0.4-0.9-0.1-1.3c0.3-0.4,0.9-0.4,1.3-0.1l65,57
			c0.4,0.3,0.4,0.9,0.1,1.3C175,473.3,174.8,473.4,174.5,473.4z"/>
		<path class="st18" d="M135.6,611.9c-16.8,0-34-2.6-51.2-7.8c-22.6-6.8-45.3-18-67.7-33.5c-0.4-0.3-0.5-0.9-0.2-1.3
			c0.3-0.4,0.9-0.5,1.3-0.2C40,584.4,62.6,595.6,85,602.3c18.6,5.6,37.2,8.1,55.3,7.6c32.6-0.9,55.4-11.7,63.7-16.3
			c0.7-0.4,1.1-1.1,1.2-1.9c0.1-0.8-0.3-1.5-0.9-2c-21.1-15.7-56.5-46.6-105.5-104.5c-29.3-34.6-49.8-62.9-50-63.2
			c-0.3-0.4-0.2-1,0.2-1.3c0.4-0.3,1-0.2,1.3,0.2c0.2,0.3,20.7,28.5,49.9,63.1c48.8,57.8,84.2,88.5,105.2,104.2
			c1.2,0.9,1.8,2.2,1.7,3.7c-0.1,1.4-0.9,2.7-2.2,3.4c-8.4,4.7-31.5,15.6-64.5,16.5C138.8,611.8,137.2,611.9,135.6,611.9z"/>
		<path class="st0" d="M191.1,527.1c-0.1,0-0.2,0-0.3,0c-18-5.6-47.3-24.9-87.1-57.5c-29.6-24.2-54.2-47.1-54.5-47.3
			c-0.4-0.4-0.4-1,0-1.3c0.4-0.4,1-0.4,1.3,0c1,0.9,98.5,91.3,140.8,104.4c0.5,0.2,0.8,0.7,0.6,1.2
			C191.9,526.9,191.5,527.1,191.1,527.1z"/>
		<path class="st0" d="M194.3,666c-5.2,0-11.4-0.3-18.5-1.1c-13.7-1.7-27.9-5.1-42-10.2c-17.6-6.4-35.3-15.4-52.6-26.8
			c-0.4-0.3-0.6-0.9-0.3-1.3c0.3-0.4,0.9-0.6,1.3-0.3C121,652,154.6,660.4,176,663c23.1,2.8,37.2-0.5,37.4-0.5
			c0.5-0.1,1,0.2,1.1,0.7c0.1,0.5-0.2,1-0.7,1.1C213.4,664.4,206.4,666,194.3,666z"/>
		<path class="st22" d="M350.7,671.1c-0.3,0-0.6-0.2-0.8-0.4c-6.9-10.5-15.3-18-24.9-22.3c-7.7-3.5-16.2-5-25.3-4.4
			c-15.6,0.9-27.6,7.6-27.8,7.7c-0.5,0.3-1,0.1-1.3-0.4c-0.3-0.5-0.1-1,0.4-1.3c0.5-0.3,12.5-6.9,28.5-7.9
			c9.4-0.6,18.3,0.9,26.2,4.6c10,4.5,18.6,12.2,25.7,23c0.3,0.4,0.2,1-0.3,1.3C351,671.1,350.9,671.1,350.7,671.1z"/>
		<path class="st14" d="M346.2,678.2c-0.4,0-0.7-0.2-0.9-0.5c-6.7-13.9-16.2-22.8-28.2-26.3c-22.3-6.7-46,7.3-46.3,7.4
			c-0.4,0.3-1,0.1-1.3-0.3c-0.3-0.5-0.1-1,0.3-1.3c0.2-0.1,6.2-3.7,15.1-6.4c8.2-2.5,20.6-4.8,32.7-1.2
			c12.5,3.7,22.4,12.9,29.4,27.3c0.2,0.5,0,1-0.4,1.3C346.4,678.2,346.3,678.2,346.2,678.2z"/>
		<path class="st12" d="M199.9,670.7c-10.7,0-18-1-18.1-1c-0.8-0.1-1.4-0.9-1.3-1.7c0.1-0.8,0.9-1.4,1.7-1.3c0.1,0,13.1,1.7,30,0.5
			c15.5-1.1,37.7-5,55-17.3c0.7-0.5,1.6-0.3,2.1,0.4c0.5,0.7,0.3,1.6-0.4,2.1c-18,12.6-40.7,16.7-56.6,17.8
			C207.9,670.6,203.7,670.7,199.9,670.7z"/>
		<path class="st14" d="M165.9,505.3c-0.3,0-0.5-0.1-0.7-0.3l-18.9-21.1c-0.3-0.4-0.3-1,0.1-1.3c0.4-0.3,1-0.3,1.3,0.1l18.9,21.1
			c0.3,0.4,0.3,1-0.1,1.3C166.3,505.2,166.1,505.3,165.9,505.3z"/>
		<path class="st18" d="M140.6,615.2c-34.9,0-74-10.9-116.4-32.6c-0.5-0.2-0.7-0.8-0.4-1.3c0.2-0.5,0.8-0.7,1.3-0.4
			c46.2,23.6,88.4,34.3,125.4,32.1c30-1.8,48.8-12,57.3-17.8c1.2-0.8,1.9-2.2,1.9-3.6c0-1.3-0.6-2.4-1.6-3.1
			c-15.4-10.7-43.7-34.6-90.9-87.9c-28.2-31.9-50.1-59.6-50.3-59.8c-0.3-0.4-0.3-1,0.2-1.3c0.4-0.3,1-0.3,1.3,0.2
			c0.2,0.3,22.1,27.9,50.3,59.8c47.1,53.2,75.2,77,90.5,87.6c1.5,1,2.4,2.7,2.4,4.6c0,2.1-1,4-2.7,5.2c-8.7,6-27.7,16.3-58.2,18.2
			C147.3,615.1,143.9,615.2,140.6,615.2z"/>
		<path class="st12" d="M212.5,500.3l-1.7,2.2c-0.9,1.2-2.7,1.5-3.9,0.6l-12.5-9.3c-1.2-0.9-1.5-2.7-0.6-3.9l1.7-2.2
			c0.9-1.2,2.7-1.5,3.9-0.6l12.5,9.3C213.1,497.3,213.4,499.1,212.5,500.3z"/>
		<path class="st0" d="M150.1,454.2l-0.8,0.9c-0.8,0.9-2.2,1-3.1,0.2l-38.6-34.3c-0.9-0.8-1-2.2-0.2-3.1l0.8-0.9
			c0.8-0.9,2.2-1,3.1-0.2l38.6,34.3C150.8,451.9,150.9,453.3,150.1,454.2z"/>
		<path class="st0" d="M82.3,625.9l-3.4,3.6c0,0,37.4,31.4,90.9,38.1l1-4.3C170.7,663.2,119.7,655.7,82.3,625.9z"/>
		<path class="st12" d="M101.8,430.4c-0.3,0-0.7-0.2-0.8-0.5L86.9,405c-0.3-0.5-0.1-1,0.4-1.3c0.5-0.3,1-0.1,1.3,0.4l14.1,24.9
			c0.3,0.5,0.1,1-0.4,1.3C102.1,430.4,102,430.4,101.8,430.4z"/>
		<path class="st0" d="M194.9,531.2c-1.6,0-5.6-1.1-17.7-6.9c-8-3.8-15.8-7.9-15.8-8c-0.5-0.2-0.6-0.8-0.4-1.3
			c0.2-0.5,0.8-0.6,1.3-0.4c13.7,7.2,29,14.4,32.4,14.7c-1.3-3.1-12.4-14.9-23.1-25.3c-0.4-0.4-0.4-1,0-1.3c0.4-0.4,1-0.4,1.3,0
			c0.1,0.1,6,5.8,11.8,11.9c12,12.6,12,14.5,12,15.2c0,0.5-0.2,0.9-0.7,1.2C195.8,531,195.5,531.2,194.9,531.2z"/>
		<path class="st19" d="M252.7,537.5c-0.1,0-0.3,0-0.4-0.1c-16.6-7.3-48-26.5-103.2-76.8c-33-30.1-59.2-57.4-59.5-57.7
			c-0.4-0.4-0.4-1,0-1.3c0.4-0.4,1-0.4,1.3,0c0.3,0.3,26.5,27.6,59.4,57.6c30.4,27.7,72.8,63.4,102.7,76.5c0.5,0.2,0.7,0.8,0.5,1.3
			C253.4,537.3,253.1,537.5,252.7,537.5z"/>
		<path class="st14" d="M253.1,540.5l-0.6,1.2c-0.7,1.2-2.2,1.7-3.4,1l-9.3-4.9c-1.2-0.7-1.7-2.2-1-3.4l0.6-1.2
			c0.7-1.2,2.2-1.7,3.4-1l9.3,4.9C253.3,537.7,253.8,539.3,253.1,540.5z"/>
		<path class="st12" d="M164.8,673.7C164.8,673.7,164.7,673.7,164.8,673.7c-0.3,0-6-0.6-15.4-2.8c-8.7-2.1-22.3-6.1-37.8-13.4
			c-17.5-8.2-33.7-18.7-48.4-31.2C50,615,38.1,602,27.8,587.6c-5-6.2-9.2-12.3-11.6-17.8l1.7-0.9c3.5,5.9,7.2,11.6,11.1,17.1
			c5.8,7.2,13.5,15.2,22.9,24c13.5,12.6,25.8,22.3,25.9,22.4c0.4,0.3,0.5,0.9,0.2,1.3c-0.3,0.4-0.9,0.5-1.3,0.2
			c-1.1-0.8-15.3-12-29.9-26.1c5.6,6.1,11.5,11.8,17.7,17.1c14.5,12.4,30.6,22.9,47.9,30.9c15.4,7.2,28.9,11.2,37.5,13.2
			c9.3,2.2,15,2.8,15.1,2.8c0.5,0,0.9,0.5,0.9,1C165.7,673.3,165.3,673.7,164.8,673.7z"/>
		<path class="st18" d="M326,557.1C326,557.1,326,557.1,326,557.1c-2.4,0-4.2-1.9-4.2-4.2c0.2-16.7-1.3-41.7-10-65.4
			c-5.2-14.2-10.6-21.4-10.7-21.4c-1.4-1.8-1.1-4.5,0.8-5.9c1.8-1.4,4.4-1.1,5.9,0.8c0.2,0.3,6.1,8,11.7,23.2
			c5.1,13.9,11.2,37.1,10.7,68.9C330.2,555.3,328.3,557.1,326,557.1z"/>
		<path class="st0" d="M156.5,616.6v-10.2c0-1.6,1.3-2.9,2.9-2.9h1.5c1.6,0,2.9,1.3,2.9,2.9v10.2c0,1.6-1.3,2.9-2.9,2.9h-1.5
			C157.8,619.5,156.5,618.2,156.5,616.6z"/>
	</g>
	<g>
		<g>
			<path class="st22" d="M389,407.7h24.3v51.9h52.2v-51.9h24.3v127.8h-24.3v-53.8h-52.2v53.8H389V407.7z"/>
			<path class="st22" d="M556.8,407.7h23.6v24.8h-8.1l-32,103h-28.1L556.8,407.7z M542.8,484.5h59.6l6.6,20h-72.7L542.8,484.5z
				 M572.8,432.5v-24.8h15.5l44.5,127.8h-28.2L572.8,432.5z"/>
			<path class="st22" d="M668.5,529.8c-9.1-5.3-16.2-12.9-21.1-22.8c-5-9.9-7.4-21.7-7.4-35.4v-0.1c0-13.8,2.5-25.5,7.4-35.4
				c5-9.8,12-17.4,21.1-22.7c9.1-5.3,19.9-7.9,32.4-7.9c10.3,0,19.5,2,27.6,6c8.1,4,14.6,9.5,19.5,16.6c4.9,7,7.8,15.1,8.6,24.1
				l0.1,0.9h-26.1l-0.4-1.5c-1-4.7-2.8-8.8-5.4-12.3c-2.6-3.5-5.9-6.2-9.9-8.1c-4-1.9-8.7-2.9-14-2.9c-6.8,0-12.8,1.8-17.8,5.3
				c-5,3.5-8.9,8.5-11.6,14.9c-2.7,6.4-4.1,14.1-4.1,23v0.1c0,9,1.4,16.7,4.1,23.2c2.7,6.5,6.6,11.5,11.7,15.1
				c5,3.5,11,5.3,17.8,5.3c5.1,0,9.7-0.9,13.7-2.8c4-1.9,7.4-4.6,10.1-8.2c2.7-3.6,4.6-7.9,5.8-13l0.2-0.9h26.1l-0.1,1
				c-0.8,9-3.7,17.1-8.6,24.1c-4.9,7-11.4,12.5-19.5,16.5c-8.1,4-17.3,6-27.6,6C688.4,537.7,677.6,535.1,668.5,529.8z"/>
			<path class="st22" d="M778.6,407.7h26.7v127.8h-26.7V407.7z M804.3,466.2h1.7l46.8-58.4h29.8l-46.9,57.8h-5.2l-26.1,32.2V466.2z
				 M812.9,475l19.3-17.6l53.7,78.1h-32.1L812.9,475z"/>
			<path class="st22" d="M939.5,407.7h21.2v24.8h-7.3l-28.7,103h-25.2L939.5,407.7z M927,484.5h53.5l5.9,20h-65.3L927,484.5z
				 M953.9,432.5v-24.8h13.9l40,127.8h-25.3L953.9,432.5z"/>
			<path class="st22" d="M667.5,680.3c-8.8-5.2-15.6-12.5-20.4-22.1c-4.8-9.6-7.2-20.9-7.2-34v-0.2c0-13.1,2.4-24.4,7.2-34
				c4.8-9.5,11.6-16.9,20.4-22c8.8-5.2,19.2-7.7,31.2-7.7c12.1,0,22.5,2.6,31.3,7.8c8.8,5.2,15.6,12.5,20.4,22
				c4.8,9.5,7.2,20.8,7.2,33.9v0.2c0,13.1-2.4,24.5-7.2,34c-4.8,9.5-11.6,16.9-20.3,22.1c-8.8,5.2-19.2,7.8-31.3,7.8
				C686.7,688.1,676.3,685.5,667.5,680.3z M716.2,661c4.9-3.5,8.6-8.3,11.3-14.6c2.6-6.3,4-13.7,4-22.2v-0.2c0-8.6-1.3-16-4-22.3
				c-2.7-6.3-6.5-11.1-11.4-14.5c-4.9-3.4-10.7-5.1-17.3-5.1c-6.6,0-12.4,1.7-17.4,5.1c-4.9,3.4-8.7,8.2-11.4,14.5
				c-2.7,6.2-4,13.7-4,22.3v0.2c0,8.6,1.3,16,4,22.3c2.7,6.3,6.5,11.1,11.4,14.5c4.9,3.4,10.7,5.1,17.4,5.1
				C705.6,666.2,711.4,664.4,716.2,661z"/>
			<path class="st22" d="M778.6,560.3h23.1l68.7,100l-22.2-16.9h11.1v-83.1h26.4v127.8h-23l-68.9-100.5l22.2,16.9H805v83.6h-26.4
				V560.3z"/>
			<g>
				<g>
					<path class="st22" d="M630.9,562.3v123.8h-26.3v-51.8v-2h-2H572v-18.1h30.6h2v-2v-49.9H630.9 M632.9,560.3h-30.3v51.9H570v22.1
						h32.6v53.8h30.3V560.3L632.9,560.3z"/>
				</g>
				<polygon class="st22" points="541.3,612.2 541.3,560.3 512.2,560.3 512.2,688.1 541.3,688.1 541.3,634.3 572.5,634.3 
					572.5,612.2 				"/>
			</g>
			<g>
				<g>
					<path class="st22" d="M487.7,562.3v18h-37.1v-18H487.7 M489.7,560.3h-41.1v22h41.1V560.3L489.7,560.3z"/>
				</g>
				<polygon class="st22" points="389,560.3 389,582.3 426,582.3 426,688.1 452.7,688.1 452.7,582.3 452.7,560.3 				"/>
			</g>
		</g>
		<g>
			<path class="st22" d="M900.5,606.5l20-16.6c2.3-1.9,4.1-3.5,5.2-4.8c1.2-1.3,1.9-2.4,2.3-3.4c0.4-1,0.6-2,0.6-3.1v-0.1
				c0-1.2-0.3-2.2-0.8-3.1c-0.6-0.9-1.3-1.6-2.3-2.1c-1-0.5-2.1-0.8-3.4-0.8c-1.5,0-2.8,0.3-3.9,0.9s-1.9,1.4-2.5,2.4
				c-0.6,1-1,2.2-1.1,3.6l0,0.5h-15.1v-0.4c0-3.8,1-7.2,2.9-10.1c1.9-2.9,4.6-5.1,7.9-6.7c3.4-1.6,7.3-2.4,11.8-2.4
				c4.6,0,8.5,0.7,11.9,2.1c3.4,1.4,6,3.4,7.9,6c1.9,2.6,2.8,5.6,2.8,9.1v0.1c0,2.5-0.4,4.7-1.3,6.7c-0.9,2-2.2,3.9-4.1,5.8
				c-1.9,1.9-4.3,4.1-7.3,6.6l-17.2,13.9l7-11.5v11.5l-6.9-5.3h30.6v12.5h-44.8V606.5z"/>
			<path class="st23" d="M969.1,615.2c-3.8-2.4-6.7-5.7-8.7-10.1c-2-4.4-3.1-9.6-3.1-15.6v-0.1c0-6,1-11.2,3.1-15.6
				c2-4.4,5-7.7,8.7-10.1c3.8-2.4,8.3-3.5,13.5-3.5c5.2,0,9.7,1.2,13.5,3.5c3.8,2.4,6.7,5.7,8.7,10.1c2,4.4,3.1,9.6,3.1,15.6v0.1
				c0,6-1,11.2-3.1,15.6c-2,4.4-4.9,7.7-8.7,10.1c-3.8,2.4-8.3,3.6-13.5,3.6C977.4,618.8,972.9,617.6,969.1,615.2z M987.2,604.1
				c1.3-1.3,2.2-3.1,2.9-5.6c0.7-2.5,1-5.5,1-9v-0.1c0-3.5-0.3-6.5-1-9c-0.7-2.4-1.6-4.3-2.9-5.6c-1.3-1.3-2.8-1.9-4.6-1.9
				c-1.8,0-3.4,0.6-4.6,1.9c-1.3,1.3-2.2,3.1-2.9,5.6c-0.7,2.4-1,5.4-1,9v0.1c0,3.5,0.3,6.5,1,9c0.7,2.5,1.6,4.3,2.9,5.6
				c1.3,1.3,2.8,1.9,4.6,1.9C984.4,606,985.9,605.4,987.2,604.1z"/>
			<path class="st22" d="M900.5,675.8l20-16.6c2.3-1.9,4.1-3.5,5.2-4.8c1.2-1.3,1.9-2.4,2.3-3.4c0.4-1,0.6-2,0.6-3.1v-0.1
				c0-1.2-0.3-2.2-0.8-3.1c-0.6-0.9-1.3-1.6-2.3-2.1c-1-0.5-2.1-0.8-3.4-0.8c-1.5,0-2.8,0.3-3.9,0.9s-1.9,1.4-2.5,2.4
				c-0.6,1-1,2.2-1.1,3.6l0,0.5h-15.1v-0.4c0-3.8,1-7.2,2.9-10.1c1.9-2.9,4.6-5.1,7.9-6.7c3.4-1.6,7.3-2.4,11.8-2.4
				c4.6,0,8.5,0.7,11.9,2.1c3.4,1.4,6,3.4,7.9,6c1.9,2.6,2.8,5.6,2.8,9.1v0.1c0,2.5-0.4,4.7-1.3,6.7c-0.9,2-2.2,3.9-4.1,5.8
				c-1.9,1.9-4.3,4.1-7.3,6.6l-17.2,13.9l7-11.5v11.5l-6.9-5.3h30.6v12.5h-44.8V675.8z"/>
			<path class="st23" d="M968.9,685.9c-3.5-1.5-6.2-3.5-8.3-6.1c-2-2.6-3.2-5.7-3.5-9.2l0-0.5h15.8l0.1,0.5c0.2,0.8,0.6,1.6,1.3,2.3
				c0.7,0.7,1.6,1.3,2.7,1.7c1.1,0.4,2.5,0.6,4.1,0.6s2.9-0.2,4-0.7c1.1-0.5,2-1.1,2.6-2c0.6-0.8,0.9-1.8,0.9-2.9v-0.1
				c0-1.9-0.8-3.4-2.3-4.4s-3.7-1.5-6.6-1.5h-5.8v-10.9h5.8c1.7,0,3.2-0.2,4.4-0.7c1.2-0.4,2.1-1.1,2.8-1.9c0.6-0.8,1-1.8,1-3V647
				c0-1.1-0.3-2-0.8-2.8c-0.5-0.8-1.3-1.4-2.4-1.8c-1-0.4-2.3-0.6-3.7-0.6c-1.5,0-2.7,0.2-3.8,0.7c-1.1,0.4-1.9,1.1-2.6,1.8
				c-0.6,0.8-1,1.7-1.1,2.7l0,0.4h-14.9l0-0.6c0.2-3.5,1.3-6.5,3.2-9s4.5-4.5,7.8-5.9c3.3-1.4,7.1-2.1,11.5-2.1
				c4.5,0,8.4,0.6,11.7,1.9c3.3,1.2,5.9,3,7.7,5.2c1.8,2.3,2.7,4.9,2.7,8v0.1c0,2.4-0.5,4.4-1.6,6.2c-1.1,1.8-2.5,3.2-4.2,4.3
				c-1.8,1.1-3.7,1.9-5.7,2.3v0.3c4.3,0.4,7.7,1.8,10.2,4c2.5,2.2,3.8,5.2,3.8,8.8v0.1c0,3.6-1,6.7-3,9.3c-2,2.6-4.8,4.6-8.4,6
				c-3.6,1.4-8,2.1-13,2.1C976.4,688.1,972.4,687.3,968.9,685.9z"/>
		</g>
	</g>
</g>
</svg>
