<?xml version="1.0" encoding="UTF-8"?>
<svg id="Capa_2" data-name="Capa 2" xmlns="http://www.w3.org/2000/svg" viewBox="0 0 992.65 314.24">
  <defs>
    <style>
      .cls-1 {
        fill: #ff4c00;
      }

      .cls-2 {
        fill: #fff;
      }

      .cls-3 {
        fill: #fbe148;
      }

      .cls-4 {
        fill: #64b9ef;
      }

      .cls-5 {
        fill: #9ff8dc;
      }

      .cls-6 {
        fill: #c71556;
      }

      .cls-7 {
        fill: #5c76b5;
      }

      .cls-8 {
        fill: #2dcdc9;
      }

      .cls-9 {
        fill: none;
        stroke: #fff;
        stroke-miterlimit: 10;
        stroke-width: 2px;
      }
    </style>
  </defs>
  <g id="Capa_2-2" data-name="Capa 2">
    <g>
      <g>
        <rect class="cls-1" x="184.9" y="275.44" width="38.78" height="7.33" rx="2.89" ry="2.89" transform="translate(426.58 14.11) rotate(76.19)"/>
        <path class="cls-2" d="m231.27,155.16c-.09,0-.18-.01-.28-.04-.5-.15-.79-.68-.63-1.19,2.69-8.83,4.94-22.05,5.24-30.74.55-15.86-.89-26.01-.9-26.11-.08-.52.28-1,.8-1.08.52-.07,1,.28,1.08.8.01.1,1.48,10.41.92,26.45-.31,8.83-2.6,22.26-5.32,31.23-.12.41-.5.67-.91.67Z"/>
        <path class="cls-5" d="m234.28,158.03c-.16,0-.33-.04-.48-.13-.1-.06-10.24-6.04-22.18-14-16.07-10.7-27.58-19.68-34.21-26.68-.36-.38-.34-.98.04-1.34.38-.36.98-.34,1.34.04,6.45,6.8,18.16,15.93,33.88,26.4,11.9,7.93,22,13.89,22.1,13.95.45.27.6.85.34,1.3-.18.3-.49.47-.82.47Z"/>
        <rect class="cls-8" x="227.8" y="34.59" width="10.48" height="16.49" rx="2.78" ry="2.78" transform="translate(.78 89.68) rotate(-21.82)"/>
        <rect class="cls-1" x="290.95" y="117.33" width="18.45" height="16.49" rx="2.67" ry="2.67" transform="translate(-23.02 87.92) rotate(-16.06)"/>
        <path class="cls-7" d="m291.11,89.37c-.54,0-1.07-.29-1.34-.81-.08-.16-8.52-15.93-23.25-34.3-13.55-16.9-35.36-39.53-62.27-51.35-.77-.34-1.12-1.23-.78-2,.34-.77,1.23-1.12,2-.78,27.5,12.07,49.69,35.09,63.46,52.28,14.9,18.59,23.44,34.57,23.53,34.73.39.74.11,1.66-.63,2.06-.23.12-.47.18-.71.18Z"/>
        <path class="cls-2" d="m332.74,302.02c-.12,0-.25-.02-.37-.07-.48-.2-.71-.76-.51-1.24.05-.11,4.57-11.2,3.75-27.48-.48-9.55-2.67-19-6.52-28.07-4.82-11.36-12.26-22.18-22.11-32.16l-.42-.42.2-.56c.05-.16,5.49-15.9,5.03-33.86-.01-.52.4-.96.93-.97.52-.03.96.4.97.93.42,16.38-3.97,30.96-4.95,33.97,9.84,10.06,17.28,20.96,22.13,32.4,3.94,9.3,6.17,18.97,6.65,28.76.81,16.68-3.71,27.74-3.9,28.21-.15.36-.51.58-.88.58Z"/>
        <path class="cls-5" d="m327.18,248.28c-.4,0-.78-.26-.91-.67-6.04-19.2-21.95-33.57-22.11-33.71l-.47-.42.21-.6c6.82-19.53,4.28-32.71,4.25-32.84-.1-.51.23-1.02.74-1.12.51-.11,1.02.23,1.12.74.11.55,2.62,13.56-4.12,33.25,2.72,2.57,16.59,16.3,22.19,34.12.16.5-.12,1.03-.62,1.19-.09.03-.19.04-.29.04Z"/>
        <path class="cls-1" d="m286.66,88.24c-.35,0-.69-.2-.86-.53-11.2-22.99-30.25-43.05-44.27-55.84-15.2-13.87-27.9-22.38-28.02-22.47-.44-.29-.55-.88-.26-1.32s.88-.55,1.32-.26c.13.09,12.94,8.68,28.25,22.65,14.14,12.9,33.37,33.16,44.7,56.41.23.47.03,1.04-.44,1.27-.13.07-.28.1-.42.1Z"/>
        <path class="cls-8" d="m236.55,162.68c-.1,0-.21-.02-.31-.05-.5-.17-.76-.71-.58-1.21.07-.21,7.42-21.62,7.1-51.78-.18-17.7-2.93-34.91-8.16-51.16-6.54-20.3-16.99-39.14-31.08-56.01-.34-.4-.28-1,.12-1.34.4-.34,1-.28,1.34.12,14.26,17.07,24.84,36.14,31.45,56.69,5.29,16.44,8.06,33.85,8.24,51.75.31,30.48-7.13,52.14-7.21,52.36-.14.39-.5.64-.9.64Z"/>
        <path class="cls-2" d="m233.74,160.13c-.09,0-.18-.01-.28-.04-.5-.15-.79-.68-.63-1.19,3.64-11.99,6.28-27.7,6.71-40.03.77-21.98-2.97-38.71-3.01-38.87-.12-.51.2-1.02.72-1.14.51-.12,1.02.2,1.14.72.04.17,3.83,17.12,3.05,39.36-.44,12.48-3.1,28.39-6.79,40.52-.12.41-.5.67-.91.67Z"/>
        <path class="cls-4" d="m174.51,152.29c-.25,0-.49-.1-.68-.29-29.45-30.13-54.99-58.89-73.88-83.19-16.05-20.65-24.3-34.24-26.67-40.08-.2-.49.04-1.04.52-1.24.49-.2,1.04.04,1.24.52,2.32,5.72,10.48,19.13,26.41,39.63,18.84,24.24,44.34,52.95,73.74,83.03.37.38.36.98-.02,1.34-.18.18-.42.27-.66.27Z"/>
        <path class="cls-2" d="m333.55,299.74c-.33,0-.65-.17-.82-.47-6.01-10.35-13.61-17.86-22.6-22.33-7.19-3.57-15.28-5.22-24.06-4.92-14.79.52-26.63,6.52-27.14,6.78-10.93,6.34-27.92,14.68-46.83,18.38-10.98,2.15-17.51,1.76-18.19,1.71-19.7.35-39.09-1.75-57.65-6.25-14.86-3.6-29.22-8.73-42.69-15.25-22.95-11.11-35.52-22.59-35.64-22.7-.39-.36-.41-.96-.05-1.34.36-.39.96-.41,1.34-.05.12.11,12.54,11.44,35.26,22.43,13.34,6.45,27.57,11.53,42.29,15.09,18.4,4.45,37.63,6.53,57.16,6.18h.05s.05,0,.05,0c.26.02,26.62,1.84,63.98-19.85l.04-.02c.5-.26,12.44-6.44,27.9-7,9.12-.33,17.53,1.38,25.01,5.09,9.34,4.64,17.23,12.41,23.43,23.1.26.45.11,1.03-.34,1.3-.15.09-.31.13-.48.13Z"/>
        <path class="cls-7" d="m152.08,183.01c-.55,0-1.09-.21-1.5-.64-.2-.21-20.41-21.12-42.44-44.86-29.63-31.93-48.27-53.5-55.39-64.11-.64-.96-.39-2.26.57-2.9.96-.64,2.26-.39,2.9.57,16.74,24.92,96.57,107.56,97.37,108.39.8.83.78,2.15-.05,2.96-.41.39-.93.59-1.45.59Z"/>
        <path class="cls-4" d="m57.15,253.27c-.21,0-.43-.07-.6-.22l-9.1-7.5c-.4-.33-.46-.93-.13-1.34.33-.4.93-.46,1.34-.13l9.1,7.5c.4.33.46.93.13,1.34-.19.23-.46.35-.73.35Z"/>
        <path class="cls-7" d="m46.29,244.33c-.23,0-.45-.08-.64-.24-.88-.79-21.65-19.53-26.93-26.65-.3-.41-.28-.97.05-1.35.34-.39.88-.48,1.33-.24,2.51,1.37,11.66,6.22,23.84,11.2,15.81,6.47,29.89,10.41,41.86,11.71.52.06.9.53.84,1.05-.06.52-.53.9-1.05.84-12.14-1.32-26.4-5.31-42.37-11.85-8.78-3.59-16-7.12-20.33-9.34,7.55,8.35,23.83,23.04,24.02,23.21.39.35.42.95.07,1.34-.19.21-.45.31-.71.31Z"/>
        <path class="cls-5" d="m127.5,242.8c-18.3,0-32.5-2.58-32.66-2.6-.52-.1-.86-.59-.76-1.11.1-.52.59-.85,1.11-.76.18.03,17.88,3.24,39.18,2.45,12.48-.46,23.74-2.19,33.46-5.13,12.09-3.66,21.82-9.21,28.91-16.51.37-.38.97-.38,1.34-.02.38.37.38.97.02,1.34-7.32,7.54-17.33,13.26-29.74,17.01-9.88,2.99-21.31,4.74-33.96,5.21-2.35.09-4.66.13-6.9.13Z"/>
        <path class="cls-1" d="m158.31,98.56c-.22,0-.45-.08-.63-.24l-65-56.99c-.39-.35-.43-.95-.09-1.34.35-.39.95-.43,1.34-.09l65,56.99c.39.35.43.95.09,1.34-.19.21-.45.32-.71.32Z"/>
        <path class="cls-3" d="m119.45,237.03c-16.82,0-34.02-2.6-51.19-7.75-22.55-6.77-45.33-18.02-67.7-33.45-.43-.3-.54-.89-.24-1.32.3-.43.89-.54,1.32-.24,22.21,15.32,44.8,26.49,67.17,33.2,18.58,5.57,37.19,8.14,55.3,7.61,32.61-.95,55.39-11.72,63.68-16.31.7-.39,1.12-1.06,1.18-1.85.05-.8-.29-1.53-.93-2.01-21.11-15.7-56.54-46.57-105.51-104.46-29.27-34.61-49.78-62.87-49.98-63.15-.31-.42-.21-1.02.21-1.33.43-.31,1.02-.21,1.33.21.2.28,20.67,28.49,49.9,63.05,48.84,57.75,84.16,88.52,105.18,104.15,1.16.86,1.79,2.23,1.69,3.66-.1,1.43-.9,2.69-2.15,3.39-8.4,4.65-31.52,15.59-64.54,16.55-1.57.05-3.14.07-4.71.07Z"/>
        <path class="cls-1" d="m174.94,152.29c-.09,0-.19-.01-.28-.04-17.97-5.57-47.27-24.92-87.06-57.49-29.6-24.23-54.25-47.12-54.49-47.35-.38-.36-.41-.96-.05-1.34.36-.38.96-.41,1.34-.05.98.91,98.47,91.28,140.82,104.42.5.16.78.69.63,1.19-.13.41-.5.67-.91.67Z"/>
        <path class="cls-1" d="m178.1,291.19c-5.24,0-11.44-.3-18.5-1.15-13.75-1.66-27.88-5.08-42.01-10.17-17.64-6.36-35.33-15.37-52.56-26.76-.44-.29-.56-.88-.27-1.32.29-.44.88-.56,1.32-.27,38.73,25.61,72.36,34.06,93.75,36.63,23.12,2.78,37.23-.49,37.37-.53.51-.12,1.02.19,1.15.7s-.19,1.02-.7,1.15c-.41.1-7.37,1.72-19.54,1.72Z"/>
        <path class="cls-2" d="m334.51,296.31c-.31,0-.61-.15-.79-.43-6.89-10.46-15.27-17.97-24.89-22.32-7.69-3.48-16.2-4.96-25.31-4.41-15.58.94-27.63,7.61-27.75,7.68-.46.26-1.04.09-1.29-.36-.26-.46-.09-1.04.36-1.29.5-.28,12.5-6.93,28.5-7.92,9.43-.58,18.25.95,26.24,4.55,9.97,4.5,18.63,12.25,25.73,23.03.29.44.17,1.03-.27,1.32-.16.11-.34.16-.52.16Z"/>
        <path class="cls-7" d="m329.98,303.4c-.35,0-.69-.2-.86-.54-6.74-13.9-16.24-22.76-28.23-26.34-22.3-6.66-46.01,7.29-46.25,7.43-.45.27-1.03.12-1.3-.33-.27-.45-.12-1.03.33-1.3.25-.15,6.21-3.69,15.09-6.43,8.23-2.54,20.57-4.8,32.67-1.2,12.53,3.74,22.42,12.93,29.41,27.33.23.47.03,1.04-.44,1.27-.13.06-.27.1-.41.1Z"/>
        <path class="cls-5" d="m183.71,295.88c-10.75,0-18.01-.97-18.1-.98-.83-.11-1.41-.88-1.3-1.71.11-.83.88-1.42,1.71-1.3.13.02,13.06,1.74,29.96.52,15.52-1.12,37.67-5.02,55.04-17.25.69-.48,1.64-.32,2.12.37.48.69.32,1.63-.37,2.12-17.96,12.64-40.71,16.66-56.64,17.8-4.46.32-8.66.44-12.42.44Z"/>
        <path class="cls-7" d="m149.7,130.43c-.26,0-.52-.11-.71-.32l-18.86-21.15c-.35-.39-.31-.99.08-1.34.39-.35.99-.31,1.34.08l18.86,21.15c.35.39.31.99-.08,1.34-.18.16-.41.24-.63.24Z"/>
        <path class="cls-3" d="m124.42,240.32c-34.9,0-74.01-10.93-116.44-32.56-.47-.24-.65-.81-.41-1.28.24-.47.81-.65,1.28-.41,46.19,23.55,88.38,34.34,125.39,32.06,30.02-1.85,48.75-11.97,57.25-17.84,1.17-.81,1.89-2.2,1.89-3.63,0-1.27-.57-2.39-1.55-3.08-15.4-10.66-43.66-34.58-90.86-87.93-28.21-31.88-50.11-59.56-50.33-59.84-.33-.41-.25-1.01.16-1.33.41-.33,1.01-.25,1.33.16.22.28,22.1,27.92,50.27,59.77,47.07,53.2,75.2,77.01,90.51,87.61,1.51,1.05,2.37,2.74,2.37,4.64,0,2.08-1.02,4.02-2.71,5.19-8.66,5.98-27.74,16.29-58.22,18.17-3.27.2-6.58.3-9.93.3Z"/>
        <rect class="cls-5" x="182.81" y="109.65" width="8.34" height="21.17" rx="2.78" ry="2.78" transform="translate(-21.27 198.02) rotate(-53.22)"/>
        <rect class="cls-1" x="109.8" y="33.18" width="5.56" height="56.03" rx="2.19" ry="2.19" transform="translate(-7.98 104.6) rotate(-48.33)"/>
        <path class="cls-1" d="m66.09,251.04l-3.43,3.56s37.38,31.38,90.85,38.11l.97-4.33s-50.98-7.57-88.39-37.34Z"/>
        <path class="cls-5" d="m85.62,55.56c-.33,0-.65-.17-.83-.48l-14.1-24.92c-.26-.46-.1-1.04.36-1.29.46-.26,1.04-.1,1.29.36l14.1,24.92c.26.46.1,1.04-.36,1.29-.15.08-.31.12-.47.12Z"/>
        <path class="cls-1" d="m178.76,156.34c-1.58,0-5.61-1.11-17.75-6.93-8-3.83-15.77-7.92-15.85-7.96-.46-.24-.64-.82-.4-1.28.24-.46.82-.64,1.28-.4,13.72,7.23,29,14.39,32.37,14.66-1.34-3.09-12.43-14.94-23.1-25.34-.38-.37-.38-.97-.02-1.34.37-.38.97-.38,1.34-.02.06.06,5.96,5.81,11.79,11.93,12.02,12.62,12.02,14.46,12.02,15.24,0,.49-.24.92-.66,1.17-.2.12-.46.27-1.04.27Z"/>
        <path class="cls-6" d="m236.55,162.68c-.13,0-.26-.03-.38-.08-16.61-7.26-48-26.48-103.22-76.81-32.99-30.07-59.22-57.38-59.48-57.66-.36-.38-.35-.98.03-1.34.38-.36.98-.35,1.34.03.26.27,26.46,27.55,59.4,57.58,30.37,27.68,72.84,63.41,102.69,76.46.48.21.7.77.49,1.25-.16.36-.51.57-.87.57Z"/>
        <rect class="cls-7" x="226.57" y="154.84" width="6.41" height="15.54" rx="2.53" ry="2.53" transform="translate(-21.76 288.97) rotate(-61.96)"/>
        <path class="cls-5" d="m148.62,298.88s-.06,0-.09,0c-.24-.02-5.91-.57-15.35-2.84-8.69-2.09-22.31-6.11-37.84-13.37-17.46-8.16-33.74-18.66-48.38-31.22-13.15-11.28-25-24.25-35.39-38.71-5.04-6.18-9.19-12.27-11.57-17.77l1.69-.86c3.48,5.89,7.18,11.58,11.09,17.06,5.82,7.16,13.5,15.24,22.85,23.99,13.47,12.61,25.77,22.28,25.9,22.37.41.32.49.92.16,1.33-.32.41-.92.49-1.33.16-1.08-.85-15.27-12.03-29.87-26.08,5.6,6.05,11.51,11.75,17.71,17.07,14.51,12.45,30.64,22.86,47.95,30.94,15.39,7.19,28.88,11.17,37.49,13.24,9.3,2.24,15.02,2.79,15.08,2.79.52.05.91.51.86,1.03-.05.49-.46.86-.94.86Z"/>
        <path class="cls-3" d="m309.84,182.3s-.04,0-.06,0c-2.31-.03-4.15-1.93-4.12-4.24.24-16.73-1.3-41.66-10.03-65.45-5.22-14.21-10.6-21.36-10.66-21.43-1.4-1.83-1.05-4.45.78-5.86,1.83-1.4,4.44-1.06,5.85.76.24.32,6.06,7.95,11.71,23.2,5.14,13.86,11.17,37.06,10.7,68.9-.03,2.29-1.9,4.12-4.18,4.12Z"/>
        <rect class="cls-1" x="135.98" y="233" width="16" height="7.33" rx="2.89" ry="2.89" transform="translate(380.64 92.68) rotate(90)"/>
      </g>
      <g>
        <g>
          <path class="cls-2" d="m372.79,32.89h24.27v51.89h52.24v-51.89h24.27v127.78h-24.27v-53.75h-52.24v53.75h-24.27V32.89Z"/>
          <path class="cls-2" d="m540.6,32.89h23.64v24.8h-8.15l-31.97,102.99h-28.07l44.54-127.78Zm-13.99,76.78h59.6l6.55,20.01h-72.7l6.55-20.01Zm30.02-51.98v-24.8h15.5l44.54,127.78h-28.16l-31.88-102.99Z"/>
          <path class="cls-2" d="m652.29,154.92c-9.12-5.31-16.16-12.9-21.12-22.76-4.96-9.86-7.44-21.66-7.44-35.42v-.09c0-13.75,2.48-25.55,7.44-35.38,4.96-9.83,12-17.39,21.12-22.67,9.12-5.28,19.91-7.93,32.37-7.93,10.33,0,19.54,2.01,27.63,6.02,8.09,4.02,14.58,9.53,19.48,16.56,4.9,7.03,7.76,15.05,8.59,24.09l.09.88h-26.12l-.36-1.5c-1-4.72-2.8-8.82-5.4-12.31-2.6-3.48-5.9-6.2-9.92-8.15s-8.68-2.92-13.99-2.92c-6.85,0-12.78,1.76-17.8,5.27-5.02,3.51-8.9,8.49-11.64,14.92-2.74,6.43-4.12,14.11-4.12,23.02v.09c0,8.97,1.37,16.72,4.12,23.24,2.75,6.53,6.64,11.54,11.69,15.05,5.05,3.51,10.96,5.27,17.75,5.27,5.14,0,9.71-.94,13.73-2.83,4.01-1.89,7.38-4.62,10.09-8.19,2.71-3.57,4.63-7.89,5.76-12.97l.18-.88h26.12l-.09.97c-.83,9.03-3.71,17.06-8.64,24.09-4.93,7.03-11.44,12.53-19.53,16.51-8.09,3.98-17.3,5.98-27.63,5.98-12.46,0-23.24-2.66-32.37-7.97Z"/>
          <path class="cls-2" d="m762.41,32.89h26.74v127.78h-26.74V32.89Zm25.68,58.45h1.68l46.84-58.45h29.75l-46.93,57.83h-5.23l-26.12,32.23v-31.61Zm8.59,8.86l19.3-17.62,53.66,78.1h-32.06l-40.91-60.48Z"/>
          <path class="cls-2" d="m923.34,32.89h21.23v24.8h-7.31l-28.71,102.99h-25.21l40-127.78Zm-12.56,76.78h53.51l5.88,20.01h-65.28l5.88-20.01Zm26.96-51.98v-24.8h13.92l40,127.78h-25.29l-28.63-102.99Z"/>
          <path class="cls-2" d="m651.32,305.49c-8.82-5.16-15.62-12.52-20.4-22.08-4.79-9.56-7.18-20.9-7.18-34.02v-.17c0-13.12,2.41-24.45,7.22-33.98,4.82-9.53,11.63-16.88,20.45-22.04,8.81-5.16,19.22-7.75,31.22-7.75s22.47,2.6,31.26,7.79c8.79,5.19,15.57,12.54,20.36,22.04,4.79,9.5,7.18,20.81,7.18,33.94v.17c0,13.12-2.39,24.45-7.18,33.98-4.79,9.53-11.56,16.89-20.32,22.08-8.76,5.19-19.19,7.79-31.3,7.79s-22.49-2.58-31.3-7.75Zm48.75-19.34c4.87-3.45,8.63-8.32,11.28-14.59,2.65-6.28,3.97-13.67,3.97-22.17v-.17c0-8.56-1.34-15.98-4.01-22.25-2.68-6.27-6.46-11.11-11.36-14.51-4.9-3.39-10.68-5.09-17.32-5.09s-12.44,1.7-17.36,5.09c-4.93,3.4-8.73,8.22-11.41,14.47-2.67,6.25-4.01,13.68-4.01,22.3v.17c0,8.56,1.34,15.98,4.01,22.25,2.67,6.28,6.46,11.13,11.36,14.55,4.9,3.42,10.7,5.14,17.4,5.14s12.57-1.73,17.45-5.18Z"/>
          <path class="cls-2" d="m762.41,185.46h23.15l68.75,99.98-22.19-16.91h11.14v-83.06h26.39v127.78h-22.97l-68.92-100.51,22.18,16.91h-11.14v83.6h-26.39v-127.78Z"/>
          <g>
            <path class="cls-2" d="m614.67,187.46v123.78h-26.27v-53.75h-32.57v-18.14h32.57v-51.89h26.27m2-2h-30.27v51.89h-32.57v22.14h32.57v53.75h30.27v-127.78h0Z"/>
            <polygon class="cls-2" points="525.11 237.35 525.11 185.46 496.06 185.46 496.06 313.24 525.11 313.24 525.11 259.49 556.37 259.49 556.37 237.35 525.11 237.35"/>
          </g>
          <g>
            <path class="cls-2" d="m471.57,187.46v18.05h-37.07v-18.05h37.07m2-2h-41.07v22.05h41.07v-22.05h0Z"/>
            <polygon class="cls-2" points="372.79 185.46 372.79 207.5 409.81 207.5 409.81 313.24 436.55 313.24 436.55 207.5 436.54 185.46 372.79 185.46"/>
          </g>
        </g>
        <g>
          <path class="cls-2" d="m884.32,231.63l20.03-16.59c2.32-1.9,4.06-3.5,5.22-4.79,1.16-1.29,1.94-2.44,2.35-3.44.4-1,.61-2.03.61-3.07v-.08c0-1.17-.28-2.2-.84-3.09-.56-.89-1.34-1.58-2.33-2.09-.99-.51-2.14-.76-3.44-.76-1.49,0-2.77.29-3.85.86s-1.92,1.38-2.52,2.41c-.6,1.03-.95,2.22-1.06,3.58l-.04.51h-15.1v-.39c0-3.83.95-7.19,2.86-10.08,1.9-2.88,4.55-5.13,7.94-6.73,3.39-1.6,7.32-2.41,11.78-2.41s8.54.71,11.91,2.13c3.38,1.42,6,3.42,7.87,5.99,1.86,2.57,2.8,5.59,2.8,9.06v.08c0,2.5-.43,4.73-1.29,6.69-.86,1.96-2.22,3.9-4.09,5.83-1.87,1.93-4.31,4.12-7.34,6.57l-17.22,13.93,6.96-11.54v11.54l-6.93-5.32h30.56v12.52h-44.84v-11.31Z"/>
          <path class="cls-9" d="m952.91,240.39c-3.78-2.37-6.7-5.75-8.75-10.11-2.05-4.37-3.07-9.55-3.07-15.55v-.08c0-6,1.02-11.18,3.07-15.55,2.05-4.37,4.96-7.73,8.75-10.09,3.78-2.36,8.28-3.54,13.5-3.54s9.71,1.18,13.48,3.54c3.77,2.36,6.67,5.73,8.71,10.09,2.03,4.37,3.05,9.56,3.05,15.55v.08c0,6-1.02,11.18-3.05,15.55s-4.94,7.74-8.71,10.11c-3.77,2.37-8.26,3.56-13.48,3.56s-9.72-1.19-13.5-3.56Zm18.12-11.09c1.25-1.27,2.21-3.12,2.86-5.58.65-2.45.98-5.45.98-9v-.08c0-3.55-.33-6.54-.98-8.98-.65-2.44-1.6-4.29-2.86-5.56-1.25-1.26-2.79-1.9-4.62-1.9s-3.37.63-4.64,1.9c-1.27,1.27-2.22,3.12-2.88,5.56-.65,2.44-.98,5.43-.98,8.98v.08c0,3.55.33,6.55.98,9,.65,2.45,1.61,4.31,2.88,5.58s2.81,1.9,4.64,1.9,3.36-.63,4.62-1.9Z"/>
          <path class="cls-2" d="m884.32,300.91l20.03-16.59c2.32-1.9,4.06-3.5,5.22-4.79,1.16-1.29,1.94-2.44,2.35-3.44.4-1,.61-2.03.61-3.07v-.08c0-1.17-.28-2.2-.84-3.09-.56-.89-1.34-1.58-2.33-2.09-.99-.51-2.14-.76-3.44-.76-1.49,0-2.77.29-3.85.86s-1.92,1.38-2.52,2.41c-.6,1.03-.95,2.22-1.06,3.58l-.04.51h-15.1v-.39c0-3.83.95-7.19,2.86-10.08,1.9-2.88,4.55-5.13,7.94-6.73,3.39-1.6,7.32-2.41,11.78-2.41s8.54.71,11.91,2.13c3.38,1.42,6,3.42,7.87,5.99,1.86,2.57,2.8,5.59,2.8,9.06v.08c0,2.5-.43,4.73-1.29,6.69-.86,1.96-2.22,3.9-4.09,5.83-1.87,1.93-4.31,4.12-7.34,6.57l-17.22,13.93,6.96-11.54v11.54l-6.93-5.32h30.56v12.52h-44.84v-11.31Z"/>
          <path class="cls-9" d="m952.69,311.05c-3.48-1.46-6.24-3.5-8.28-6.12-2.03-2.62-3.2-5.69-3.48-9.21l-.04-.51h15.81l.08.47c.16.84.57,1.61,1.25,2.33.68.72,1.59,1.29,2.74,1.72,1.15.43,2.5.65,4.07.65s2.91-.24,4.03-.72c1.12-.48,1.98-1.15,2.58-2,.6-.85.9-1.82.9-2.91v-.08c0-1.93-.76-3.4-2.27-4.4s-3.7-1.51-6.57-1.51h-5.83v-10.92h5.83c1.72,0,3.18-.22,4.38-.67,1.2-.44,2.12-1.09,2.76-1.94.64-.85.96-1.85.96-2.99v-.08c0-1.1-.27-2.04-.82-2.84s-1.34-1.41-2.37-1.84c-1.03-.43-2.25-.65-3.66-.65s-2.73.22-3.82.67c-1.08.44-1.94,1.06-2.56,1.84-.63.78-1,1.68-1.13,2.7l-.04.35h-14.95l.04-.59c.23-3.47,1.3-6.48,3.19-9.02s4.48-4.52,7.77-5.93c3.29-1.41,7.12-2.11,11.51-2.11s8.42.62,11.74,1.86c3.31,1.24,5.87,2.99,7.67,5.24,1.8,2.26,2.7,4.92,2.7,8v.08c0,2.37-.53,4.44-1.6,6.2-1.07,1.76-2.48,3.19-4.25,4.28-1.76,1.1-3.67,1.85-5.73,2.27v.31c4.28.44,7.67,1.77,10.17,3.99,2.5,2.22,3.76,5.15,3.76,8.81v.08c0,3.57-.99,6.66-2.95,9.25-1.97,2.6-4.77,4.6-8.39,6.01-3.63,1.41-7.96,2.11-12.99,2.11-4.64,0-8.71-.73-12.19-2.19Z"/>
        </g>
      </g>
    </g>
  </g>
</svg>