<?xml version="1.0" encoding="UTF-8"?>
<svg width="512px" height="512px" viewBox="0 0 512 512" version="1.1" xmlns="http://www.w3.org/2000/svg" xmlns:xlink="http://www.w3.org/1999/xlink">
    <title>change anything in this icon</title>
    <defs>
        <rect id="path-1" x="0" y="0" width="512" height="512"></rect>
        <linearGradient x1="102.109947%" y1="100%" x2="0%" y2="0%" id="linearGradient-3">
            <stop stop-color="#1D5EBE" offset="0%"></stop>
            <stop stop-color="#00D1FF" offset="100%"></stop>
        </linearGradient>
        <path d="M146.141456,-5.90428975e-15 L365.858544,5.90428975e-15 C416.675112,-3.43056238e-15 435.102427,5.29105984 453.680205,15.2265641 C472.257983,25.1620684 486.837932,39.7420171 496.773436,58.3197949 C506.70894,76.8975727 512,95.3248882 512,146.141456 L512,365.858544 C512,416.675112 506.70894,435.102427 496.773436,453.680205 C486.837932,472.257983 472.257983,486.837932 453.680205,496.773436 C435.102427,506.70894 416.675112,512 365.858544,512 L146.141456,512 C95.3248882,512 76.8975727,506.70894 58.3197949,496.773436 C39.7420171,486.837932 25.1620684,472.257983 15.2265641,453.680205 C5.29105984,435.102427 2.28704159e-15,416.675112 -3.93619317e-15,365.858544 L3.93619317e-15,146.141456 C-2.28704159e-15,95.3248882 5.29105984,76.8975727 15.2265641,58.3197949 C25.1620684,39.7420171 39.7420171,25.1620684 58.3197949,15.2265641 C76.8975727,5.29105984 95.3248882,3.43056238e-15 146.141456,-5.90428975e-15 Z" id="path-4"></path>
    </defs>
    <g id="change-anything-in-this-icon" stroke="none" stroke-width="1" fill="none" fill-rule="evenodd">
        <g id="icon">
            <mask id="mask-2" fill="white">
                <use xlink:href="#path-1"></use>
            </mask>
            <g id="Mask"></g>
            <g id="Rectangle" mask="url(#mask-2)">
                <mask id="mask-5" fill="white">
                    <use xlink:href="#path-4"></use>
                </mask>
                <use id="Mask" fill="url(#linearGradient-3)" xlink:href="#path-4"></use>
                <path d="M171.141456,25 L340.858544,25 C391.675112,25 410.102427,30.2910598 428.680205,40.2265641 C447.257983,50.1620684 461.837932,64.7420171 471.773436,83.3197949 C481.70894,101.897573 487,120.324888 487,171.141456 L487,340.858544 C487,391.675112 481.70894,410.102427 471.773436,428.680205 C461.837932,447.257983 447.257983,461.837932 428.680205,471.773436 C410.102427,481.70894 391.675112,487 340.858544,487 L171.141456,487 C120.324888,487 101.897573,481.70894 83.3197949,471.773436 C64.7420171,461.837932 50.1620684,447.257983 40.2265641,428.680205 C30.2910598,410.102427 25,391.675112 25,340.858544 L25,171.141456 C25,120.324888 30.2910598,101.897573 40.2265641,83.3197949 C50.1620684,64.7420171 64.7420171,50.1620684 83.3197949,40.2265641 C101.897573,30.2910598 120.324888,25 171.141456,25 Z" id="border" stroke="#FFFFFF" stroke-width="5" mask="url(#mask-5)"></path>
            </g>
        </g>
        <path d="M387.231729,313.498263 C387.231729,313.498263 387.211982,313.478516 387.202109,313.468643 C387.666155,311.898786 388.140074,310.338802 388.54488,308.719579 C405.872546,239.695238 363.585141,158.082421 292.033231,115.113757 C323.390878,157.618375 337.253011,209.10771 324.940988,254.139897 C323.84505,258.158336 322.522026,262.008928 321.060775,265.760788 C319.481045,264.72409 317.476762,263.539292 314.801094,262.058295 C314.801094,262.058295 243.624371,218.112173 166.474292,140.379568 C164.450262,138.335792 207.616393,202.068037 256.597906,253.823951 C233.52397,240.870162 169.2092,194.080525 128.491651,156.808763 C133.497422,165.151714 139.441157,173.188592 145.987164,180.919397 C179.990859,224.036161 224.331914,277.243453 277.450346,318.099228 C240.129217,340.936204 187.385972,342.7134 134.869812,318.118974 C121.886404,312.037013 109.673114,304.691267 98.3681689,296.348316 C120.593,331.902121 154.833654,362.578509 196.499041,380.488701 C246.191432,401.84468 295.597498,400.393303 332.405214,380.834267 L332.375594,380.873761 C332.54344,380.765154 332.760653,380.656548 332.928499,380.547941 C334.439117,379.738329 335.93986,378.908971 337.410984,378.030246 C355.09409,368.848064 390.016003,359.537528 408.765427,396.019425 C413.356519,404.944901 423.111353,357.641852 387.241602,313.508136 L387.231729,313.498263 Z" id="Path" stroke="#FFFFFF" stroke-width="5" fill-opacity="0.4" fill="#FFFFFF" fill-rule="nonzero" stroke-linejoin="round"></path>
    </g>
</svg>