<?xml version="1.0" encoding="UTF-8"?>
<svg id="Capa_2" data-name="Capa 2" xmlns="http://www.w3.org/2000/svg" viewBox="0 0 535.75 672.03">
  <defs>
    <style>
      .cls-1 {
        fill: #fff;
      }
    </style>
  </defs>
  <g id="Capa_1-2" data-name="Capa 1">
    <g>
      <path class="cls-1" d="m0,226.09v241.76c0,3.04,1.43,5.89,3.85,7.72l258.69,194.52c3.45,2.6,8.21,2.58,11.65-.03l257.75-195.86c2.4-1.83,3.81-4.67,3.81-7.69v-240.35c0-7.95-9.06-12.49-15.43-7.74l-191.12,142.6c-3.48,2.6-8.27,2.55-11.7-.11l-43.73-33.94c-3.47-2.69-8.32-2.7-11.81-.03l-43.4,33.36c-3.42,2.63-8.17,2.67-11.64.1L15.41,218.33c-6.37-4.73-15.41-.18-15.41,7.76Z"/>
      <path class="cls-1" d="m125.67,214.62l133.87,98.21c4.95,3.63,11.7,3.61,16.62-.07l131.58-98.21c7.44-5.56,7.5-16.7.1-22.32l-131.59-100.1c-4.97-3.78-11.83-3.81-16.83-.07l-133.87,100.1c-7.52,5.62-7.47,16.91.1,22.46Z"/>
      <path class="cls-1" d="m218.89,45.18l45.02,34.12c2.35,1.78,5.59,1.8,7.97.05l44.83-33.15c3.56-2.63,3.6-7.95.07-10.63L271.84,1.36c-2.35-1.79-5.6-1.81-7.98-.05l-44.92,33.24c-3.56,2.64-3.6,7.96-.06,10.64Z"/>
    </g>
  </g>
</svg>