<?xml version="1.0" encoding="UTF-8"?>
<svg id="Capa_2" data-name="Capa 2" xmlns="http://www.w3.org/2000/svg" viewBox="0 0 663.96 647.53">
  <defs>
    <style>
      .cls-1 {
        fill: #fff;
      }
    </style>
  </defs>
  <g id="Capa_1-2" data-name="Capa 1">
    <path class="cls-1" d="m663.96,522.42c.09,24.98-9.21,49.09-26.07,67.54-16.85,18.44-40.02,29.88-64.91,32.04-24.89,2.16-49.69-5.11-69.46-20.37-19.78-15.27-33.1-37.41-37.31-62.04-4.22-24.62.97-49.94,14.54-70.91,13.57-20.98,34.53-36.09,58.72-42.33v-235.91c0-11-4.38-21.55-12.17-29.33-7.78-7.78-18.33-12.15-29.33-12.17h-72.71l57.1,57.1c4.95,4.61,7.8,11.02,7.92,17.78.12,6.75-2.51,13.27-7.29,18.05-4.78,4.77-11.29,7.4-18.05,7.29-6.75-.12-13.17-2.98-17.78-7.92l-99.59-99.59c-4.67-4.67-7.29-11-7.29-17.61s2.62-12.93,7.29-17.6L447.18,6.84c6.34-6.02,15.38-8.27,23.8-5.93,8.43,2.34,15,8.92,17.33,17.34s.08,17.45-5.94,23.79l-57.1,57.1h72.71c24.2.02,47.41,9.65,64.53,26.77,17.12,17.12,26.74,40.32,26.77,64.53v235.91c21.34,5.47,40.25,17.87,53.78,35.26,13.52,17.39,20.88,38.78,20.92,60.81h0Zm-447.17-117.19c-6.36-5.92-15.34-8.1-23.7-5.76-8.36,2.35-14.9,8.89-17.25,17.25-2.35,8.36-.17,17.34,5.76,23.7l57.1,57.1h-72.71c-11-.01-21.55-4.38-29.33-12.17-7.78-7.78-12.16-18.33-12.17-29.33v-235.91c31.56-8.15,57.14-31.23,68.48-61.8,11.34-30.57,7-64.75-11.62-91.51-18.62-26.76-49.15-42.72-81.75-42.72s-63.14,15.96-81.76,42.72C-.78,93.57-5.12,127.75,6.22,158.32c11.34,30.56,36.91,53.65,68.48,61.8v235.91c.02,24.21,9.65,47.41,26.77,64.53,17.11,17.11,40.32,26.74,64.53,26.77h72.71l-57.1,57.1c-4.95,4.61-7.8,11.02-7.92,17.78-.12,6.75,2.51,13.27,7.29,18.05,4.78,4.77,11.29,7.4,18.05,7.29,6.75-.12,13.17-2.98,17.78-7.92l99.59-99.59c4.67-4.67,7.29-11,7.29-17.61s-2.62-12.93-7.29-17.6l-99.59-99.58Z"/>
  </g>
</svg>